<svg width="435" height="61" viewBox="0 0 435 61" fill="none" xmlns="http://www.w3.org/2000/svg">
<path d="M333.651 18.7882L304.482 35.5677L306.074 38.3351L335.243 21.5556L333.651 18.7882Z" fill="#020202"/>
<path d="M342.846 39.6177H317.599V42.8103H342.846V39.6177Z" fill="#020202"/>
<path d="M332.966 32.1268L322.593 57.4814L325.548 58.6903L335.921 33.3357L332.966 32.1268Z" fill="#020202"/>
<path d="M341.256 41.4002C340.361 33.7194 337.29 25.9743 333.231 21.1998L335.658 19.131C340.168 24.4424 343.446 32.6242 344.42 41.028L341.249 41.393L341.256 41.4002Z" fill="#020202"/>
<path d="M324.627 59.5819L323.518 56.5898C332.322 53.3114 338.163 48.0787 341.377 40.5841L344.305 41.8439C340.726 50.1832 334.291 55.9814 324.627 59.5819Z" fill="#020202"/>
<path d="M340.647 41.214C340.647 40.0042 341.628 39.0236 342.837 39.0236C344.047 39.0236 345.028 40.0042 345.028 41.214C345.028 42.4237 344.047 43.4044 342.837 43.4044C341.628 43.4044 340.647 42.4237 340.647 41.214Z" fill="white"/>
<path d="M342.838 43.9341C341.342 43.9341 340.118 42.7172 340.118 41.214C340.118 39.7108 341.335 38.4939 342.838 38.4939C344.341 38.4939 345.558 39.7108 345.558 41.214C345.558 42.7172 344.341 43.9341 342.838 43.9341ZM342.838 39.5462C341.914 39.5462 341.17 40.2978 341.17 41.214C341.17 42.1303 341.914 42.8819 342.838 42.8819C343.761 42.8819 344.506 42.1303 344.506 41.214C344.506 40.2978 343.754 39.5462 342.838 39.5462Z" fill="#020202"/>
<path d="M319.089 40.6428L316.108 41.7864L322.583 58.6614L325.563 57.5179L319.089 40.6428Z" fill="#020202"/>
<path d="M323.56 59.5963C313.954 56.3465 307.111 48.6729 303.753 37.4059L306.81 36.4968C309.859 46.733 316.001 53.6765 324.584 56.5827L323.56 59.6035V59.5963Z" fill="#020202"/>
<path d="M321.721 57.7137C321.721 56.418 322.773 55.3658 324.069 55.3658C325.365 55.3658 326.417 56.418 326.417 57.7137C326.417 59.0093 325.365 60.0616 324.069 60.0616C322.773 60.0616 321.721 59.0093 321.721 57.7137Z" fill="white"/>
<path d="M324.075 60.5912C322.486 60.5912 321.198 59.3028 321.198 57.7137C321.198 56.1245 322.486 54.8361 324.075 54.8361C325.664 54.8361 326.953 56.1245 326.953 57.7137C326.953 59.3028 325.664 60.5912 324.075 60.5912ZM324.075 55.8883C323.066 55.8883 322.25 56.7044 322.25 57.7137C322.25 58.723 323.066 59.539 324.075 59.539C325.085 59.539 325.901 58.723 325.901 57.7137C325.901 56.7044 325.085 55.8883 324.075 55.8883Z" fill="#020202"/>
<path d="M333.482 33.834C326.739 27.9428 322.708 13.7696 322.708 3.47607H325.636C325.636 8.5226 326.631 14.3708 328.371 19.5319C330.196 24.965 332.701 29.2599 335.407 31.6292L333.482 33.834Z" fill="#020202"/>
<path d="M329.545 22.0588C323.411 22.0588 318.106 20.5771 312.824 17.4633L314.449 14.7145C320.49 18.2865 326.603 19.4747 334.263 18.58L334.635 21.751C332.874 21.9586 331.177 22.0588 329.552 22.0588" fill="#020202"/>
<path d="M306.839 37.3057L303.732 36.5899C307.082 22.0802 313.604 10.5341 323.131 2.26636L325.221 4.67867C316.216 12.4883 310.032 23.4689 306.839 37.3129" fill="#020202"/>
<path d="M332.093 20.1689C332.093 18.8733 333.145 17.821 334.441 17.821C335.736 17.821 336.789 18.8733 336.789 20.1689C336.789 21.4646 335.736 22.5168 334.441 22.5168C333.145 22.5168 332.093 21.4646 332.093 20.1689Z" fill="white"/>
<path d="M334.447 23.0395C332.858 23.0395 331.57 21.751 331.57 20.1619C331.57 18.5728 332.858 17.2843 334.447 17.2843C336.037 17.2843 337.325 18.5728 337.325 20.1619C337.325 21.751 336.037 23.0395 334.447 23.0395ZM334.447 18.3437C333.438 18.3437 332.622 19.1597 332.622 20.1691C332.622 21.1784 333.438 21.9944 334.447 21.9944C335.457 21.9944 336.273 21.1784 336.273 20.1691C336.273 19.1597 335.457 18.3437 334.447 18.3437Z" fill="#020202"/>
<path d="M315.214 15.8436L312.06 16.3414L316.026 41.4634L319.179 40.9656L315.214 15.8436Z" fill="#020202"/>
<path d="M311.285 16.0315C311.285 14.7359 312.337 13.6837 313.633 13.6837C314.928 13.6837 315.98 14.7359 315.98 16.0315C315.98 17.3272 314.928 18.3794 313.633 18.3794C312.337 18.3794 311.285 17.3272 311.285 16.0315Z" fill="white"/>
<path d="M313.632 18.9091C312.051 18.9091 310.755 17.6206 310.755 16.0315C310.755 14.4423 312.043 13.1539 313.632 13.1539C315.222 13.1539 316.51 14.4423 316.51 16.0315C316.51 17.6206 315.222 18.9091 313.632 18.9091ZM313.632 14.2061C312.63 14.2061 311.807 15.0222 311.807 16.0315C311.807 17.0408 312.623 17.8568 313.632 17.8568C314.642 17.8568 315.458 17.0408 315.458 16.0315C315.458 15.0222 314.642 14.2061 313.632 14.2061Z" fill="#020202"/>
<path d="M321.821 3.46898C321.821 2.17335 322.873 1.12109 324.169 1.12109C325.464 1.12109 326.517 2.17335 326.517 3.46898C326.517 4.76461 325.464 5.81686 324.169 5.81686C322.873 5.81686 321.821 4.76461 321.821 3.46898Z" fill="white"/>
<path d="M324.169 6.34649C322.587 6.34649 321.291 5.05802 321.291 3.4689C321.291 1.87978 322.579 0.591309 324.169 0.591309C325.758 0.591309 327.046 1.87978 327.046 3.4689C327.046 5.05802 325.758 6.34649 324.169 6.34649ZM324.169 1.64356C323.166 1.64356 322.343 2.4596 322.343 3.4689C322.343 4.47821 323.159 5.29424 324.169 5.29424C325.178 5.29424 325.994 4.47821 325.994 3.4689C325.994 2.4596 325.178 1.64356 324.169 1.64356Z" fill="#020202"/>
<path d="M370.232 19.4388C370.232 22.252 368.915 23.7839 367.304 24.5068V24.5569C369.473 25.1654 370.876 27.1053 370.876 29.8683C370.876 34.4567 367.769 36.5183 363.754 36.5183H356.202C354.326 36.5183 353.303 35.237 353.303 33.6908V16.2033C353.303 14.6572 354.305 13.3544 356.202 13.3544H363.589C367.898 13.3544 370.239 16.2176 370.239 19.4388M357.082 16.9192V23.1038H363.088C365.407 23.1038 366.46 21.9156 366.46 20.0115C366.46 17.9857 365.307 16.9192 363.088 16.9192H357.082ZM357.082 26.1819V32.9607H363.367C365.901 32.9607 367.068 31.7438 367.068 29.5534C367.068 27.363 365.722 26.1819 363.546 26.1819H357.082Z" fill="#020202"/>
<path d="M394.433 34.7717C394.433 35.8239 393.596 36.6829 392.544 36.6829C391.771 36.6829 391.012 36.2033 390.768 35.4302L388.693 29.539H379L376.91 35.4302C376.645 36.2033 375.908 36.6829 375.135 36.6829C374.083 36.6829 373.245 35.8239 373.245 34.7717C373.245 34.4782 373.324 34.2133 373.424 33.9342L379.909 16.1604C380.618 14.2205 381.985 13.1969 383.861 13.1969C385.736 13.1969 387.132 14.2205 387.826 16.1604L394.262 33.9342C394.362 34.2133 394.441 34.4782 394.441 34.7717M387.504 26.1675L384.491 17.592C384.362 17.2484 384.147 17.0623 383.846 17.0623C383.531 17.0623 383.353 17.227 383.202 17.6063L380.174 26.1604H387.497L387.504 26.1675Z" fill="#020202"/>
<path d="M414.211 15.0938C414.211 15.5734 414.047 15.9814 413.703 16.3966L406.66 25.0007C405.901 25.9385 405.772 26.189 405.772 26.8762V34.7073C405.772 35.8239 404.999 36.6829 403.846 36.6829C402.78 36.6829 401.957 35.781 401.957 34.7073V26.8762C401.957 26.2176 401.842 25.9528 401.033 24.965L394.025 16.3894C393.682 15.9814 393.517 15.5663 393.517 15.0867C393.517 14.0344 394.376 13.1754 395.443 13.1754C396.037 13.1754 396.609 13.4689 397.025 13.9843L403.868 22.524L410.711 13.9843C411.126 13.4761 411.699 13.1754 412.293 13.1754C413.36 13.1754 414.219 14.0272 414.219 15.0867" fill="#020202"/>
<path d="M434.484 34.7717C434.484 35.8239 433.646 36.6829 432.594 36.6829C431.821 36.6829 431.062 36.2033 430.819 35.4302L428.743 29.539H419.051L416.96 35.4302C416.696 36.2033 415.958 36.6829 415.185 36.6829C414.133 36.6829 413.295 35.8239 413.295 34.7717C413.295 34.4782 413.374 34.2133 413.474 33.9342L419.96 16.1604C420.668 14.2205 422.036 13.1969 423.911 13.1969C425.786 13.1969 427.182 14.2205 427.877 16.1604L434.312 33.9342C434.412 34.2133 434.491 34.4782 434.491 34.7717M427.555 26.1675L424.541 17.592C424.412 17.2484 424.197 17.0623 423.897 17.0623C423.582 17.0623 423.403 17.227 423.252 17.6063L420.225 26.1604H427.547L427.555 26.1675Z" fill="#020202"/>
<path d="M357.819 43.5405C357.855 43.6193 357.862 43.6909 357.862 43.7553C357.862 43.9772 357.662 44.1562 357.454 44.1562C357.247 44.1562 357.146 44.0273 357.075 43.8985C356.846 43.3616 356.323 43.018 355.715 43.018C354.82 43.018 354.24 43.6837 354.169 44.5856C354.147 44.9722 354.147 45.3659 354.169 45.7596C354.24 46.6758 354.82 47.3201 355.715 47.3201C356.323 47.3201 356.846 46.9765 357.075 46.4396C357.146 46.3036 357.247 46.1819 357.454 46.1819C357.662 46.1819 357.862 46.3466 357.862 46.5828C357.862 46.6544 357.855 46.7188 357.819 46.7975C357.49 47.6279 356.631 48.1218 355.708 48.1218C354.355 48.1218 353.424 47.1196 353.331 45.8097C353.295 45.3802 353.295 44.9364 353.331 44.5069C353.424 43.2113 354.362 42.202 355.708 42.202C356.631 42.202 357.483 42.6959 357.819 43.5262" fill="#020202"/>
<path d="M363.159 44.0987C363.159 44.9863 362.694 45.5661 361.849 45.7164L363.216 47.3772C363.281 47.4559 363.331 47.5418 363.331 47.6706C363.331 47.9069 363.145 48.1001 362.909 48.1001C362.794 48.1001 362.672 48.0572 362.572 47.9283L361.155 46.1531C361.026 45.9885 360.926 45.8882 360.697 45.8882H359.802V47.6563C359.802 47.8925 359.63 48.0858 359.38 48.0858C359.129 48.0858 358.964 47.8854 358.964 47.6563V42.889C358.964 42.5883 359.143 42.2805 359.594 42.2805H361.262C362.365 42.2805 363.159 42.9605 363.159 44.0915M359.802 43.0751V45.108H361.126C362.007 45.108 362.322 44.7 362.322 44.0987C362.322 43.4974 361.964 43.0751 361.212 43.0751H359.802Z" fill="#020202"/>
<path d="M368.335 42.6886C368.335 42.9105 368.156 43.0895 367.927 43.0895H365.314V44.786H367.776C367.991 44.786 368.163 44.9506 368.163 45.1653C368.163 45.3801 367.991 45.5447 367.776 45.5447H365.314V47.2698H367.941C368.17 47.2698 368.349 47.4488 368.349 47.6707C368.349 47.8926 368.17 48.0716 367.941 48.0716H365.128C364.698 48.0716 364.469 47.7781 364.469 47.4202V42.9463C364.469 42.5955 364.698 42.3021 365.128 42.3021H367.919C368.149 42.3021 368.328 42.481 368.328 42.7029" fill="#020202"/>
<path d="M374.197 47.6779C374.197 47.9069 374.011 48.093 373.782 48.093C373.611 48.093 373.446 47.9928 373.389 47.821L372.83 46.2462H370.339L369.774 47.821C369.709 47.9928 369.545 48.093 369.38 48.093C369.144 48.093 368.965 47.9069 368.965 47.6779C368.965 47.6063 368.986 47.549 369.008 47.4774L370.661 42.9463C370.833 42.4882 371.141 42.252 371.578 42.252C372.014 42.252 372.344 42.4882 372.508 42.9535L374.155 47.4846C374.176 47.549 374.197 47.6134 374.197 47.685M372.565 45.4946L371.771 43.2469C371.735 43.1467 371.671 43.0966 371.585 43.0966C371.499 43.0966 371.449 43.1467 371.406 43.2541L370.604 45.5018H372.558L372.565 45.4946Z" fill="#020202"/>
<path d="M378.571 42.7029C378.571 42.932 378.371 43.1181 378.142 43.1181H376.631V47.6635C376.631 47.9069 376.459 48.093 376.216 48.093C375.973 48.093 375.794 47.8997 375.794 47.6635V43.1181H374.276C374.04 43.1181 373.847 42.9248 373.847 42.7029C373.847 42.481 374.04 42.2877 374.276 42.2877H378.142C378.378 42.2877 378.571 42.4667 378.571 42.7029Z" fill="#020202"/>
<path d="M380.254 42.6814V47.6635C380.254 47.9069 380.075 48.093 379.839 48.093C379.602 48.093 379.423 47.9069 379.423 47.6635V42.6814C379.423 42.4452 379.617 42.252 379.839 42.252C380.075 42.252 380.254 42.4452 380.254 42.6814Z" fill="#020202"/>
<path d="M386.294 42.6671C386.294 42.7387 386.273 42.796 386.251 42.8604L384.584 47.3629C384.412 47.8353 384.168 48.093 383.71 48.093C383.252 48.093 383.002 47.8067 382.837 47.3629L381.176 42.8604C381.155 42.796 381.133 42.7387 381.133 42.6671C381.133 42.4381 381.319 42.252 381.548 42.252C381.72 42.252 381.878 42.3593 381.942 42.524L383.61 47.1553C383.632 47.2054 383.66 47.2341 383.71 47.2341C383.753 47.2341 383.782 47.2126 383.803 47.1553L385.471 42.524C385.528 42.3522 385.693 42.252 385.858 42.252C386.094 42.252 386.273 42.4381 386.273 42.6671" fill="#020202"/>
<path d="M391.041 42.6886C391.041 42.9105 390.862 43.0895 390.633 43.0895H388.02V44.786H390.482C390.697 44.786 390.869 44.9506 390.869 45.1653C390.869 45.3801 390.697 45.5447 390.482 45.5447H388.02V47.2698H390.647C390.876 47.2698 391.055 47.4488 391.055 47.6707C391.055 47.8926 390.876 48.0716 390.647 48.0716H387.834C387.404 48.0716 387.175 47.7781 387.175 47.4202V42.9463C387.175 42.5955 387.404 42.3021 387.834 42.3021H390.626C390.855 42.3021 391.034 42.481 391.034 42.7029" fill="#020202"/>
<path d="M395.343 42.6815V47.2269H397.877C398.099 47.2269 398.307 47.413 398.307 47.6421C398.307 47.8711 398.106 48.0501 397.877 48.0501H395.086C394.706 48.0501 394.506 47.7853 394.506 47.4703V42.6743C394.506 42.4381 394.699 42.2448 394.921 42.2448C395.157 42.2448 395.336 42.4381 395.336 42.6743" fill="#020202"/>
<path d="M402.917 42.6886C402.917 42.9105 402.738 43.0895 402.509 43.0895H399.896V44.786H402.358C402.573 44.786 402.745 44.9506 402.745 45.1653C402.745 45.3801 402.573 45.5447 402.358 45.5447H399.896V47.2698H402.523C402.752 47.2698 402.931 47.4488 402.931 47.6707C402.931 47.8926 402.752 48.0716 402.523 48.0716H399.71C399.28 48.0716 399.051 47.7781 399.051 47.4202V42.9463C399.051 42.5955 399.28 42.3021 399.71 42.3021H402.502C402.731 42.3021 402.91 42.481 402.91 42.7029" fill="#020202"/>
<path d="M408.779 47.6779C408.779 47.9069 408.593 48.093 408.364 48.093C408.192 48.093 408.027 47.9928 407.97 47.821L407.412 46.2462H404.921L404.355 47.821C404.291 47.9928 404.126 48.093 403.962 48.093C403.725 48.093 403.546 47.9069 403.546 47.6779C403.546 47.6063 403.568 47.549 403.589 47.4774L405.243 42.9463C405.415 42.4882 405.722 42.252 406.159 42.252C406.596 42.252 406.925 42.4882 407.083 42.9535L408.729 47.4846C408.75 47.549 408.772 47.6134 408.772 47.685M407.14 45.4946L406.345 43.2469C406.309 43.1467 406.245 43.0966 406.159 43.0966C406.073 43.0966 406.023 43.1467 405.98 43.2541L405.178 45.5018H407.133L407.14 45.4946Z" fill="#020202"/>
<path d="M413.861 44.0987C413.861 44.9863 413.396 45.5661 412.551 45.7164L413.918 47.3772C413.983 47.4559 414.033 47.5418 414.033 47.6706C414.033 47.9069 413.847 48.1001 413.611 48.1001C413.496 48.1001 413.374 48.0572 413.274 47.9283L411.857 46.1531C411.728 45.9885 411.628 45.8882 411.399 45.8882H410.504V47.6563C410.504 47.8925 410.332 48.0858 410.082 48.0858C409.831 48.0858 409.667 47.8854 409.667 47.6563V42.889C409.667 42.5883 409.845 42.2805 410.296 42.2805H411.964C413.067 42.2805 413.861 42.9605 413.861 44.0915M410.504 43.0751V45.108H411.828C412.709 45.108 413.024 44.7 413.024 44.0987C413.024 43.4974 412.666 43.0751 411.914 43.0751H410.504Z" fill="#020202"/>
<path d="M416.509 42.6385L419.158 47.0623H419.179C419.129 46.2319 419.129 44.7717 419.129 43.7695V42.6886C419.129 42.4453 419.323 42.2592 419.544 42.2592C419.781 42.2592 419.96 42.4453 419.96 42.6886V47.4059C419.96 47.7566 419.716 48.1002 419.294 48.1002C418.957 48.1002 418.771 47.9213 418.607 47.635L415.987 43.2541H415.965C416.015 43.9986 416.015 45.2155 416.015 46.1317V47.6707C416.015 47.907 415.858 48.1002 415.6 48.1002C415.343 48.1002 415.185 47.907 415.185 47.6707V42.9964C415.185 42.5884 415.443 42.2592 415.872 42.2592C416.137 42.2592 416.359 42.3737 416.509 42.6457" fill="#020202"/>
<path d="M422.279 42.6814V47.6635C422.279 47.9069 422.1 48.093 421.863 48.093C421.627 48.093 421.448 47.9069 421.448 47.6635V42.6814C421.448 42.4452 421.642 42.252 421.863 42.252C422.1 42.252 422.279 42.4452 422.279 42.6814Z" fill="#020202"/>
<path d="M425.085 42.6385L427.734 47.0623H427.756C427.705 46.2319 427.705 44.7717 427.705 43.7695V42.6886C427.705 42.4453 427.899 42.2592 428.121 42.2592C428.357 42.2592 428.536 42.4453 428.536 42.6886V47.4059C428.536 47.7566 428.292 48.1002 427.87 48.1002C427.534 48.1002 427.347 47.9213 427.183 47.635L424.563 43.2541H424.541C424.592 43.9986 424.592 45.2155 424.592 46.1317V47.6707C424.592 47.907 424.434 48.1002 424.176 48.1002C423.919 48.1002 423.761 47.907 423.761 47.6707V42.9964C423.761 42.5884 424.019 42.2592 424.448 42.2592C424.713 42.2592 424.935 42.3737 425.085 42.6457" fill="#020202"/>
<path d="M434.291 43.4258C434.326 43.4902 434.355 43.5761 434.355 43.6692C434.355 43.8839 434.169 44.0701 433.954 44.0701C433.768 44.0701 433.654 43.9627 433.596 43.8481C433.374 43.3399 432.895 43.0178 432.222 43.0178C431.334 43.0178 430.711 43.6262 430.618 44.6141C430.575 45.065 430.583 45.4659 430.633 45.8381C430.754 46.7544 431.263 47.3485 432.25 47.3485C433.131 47.3485 433.675 46.826 433.675 46.1459V45.7021H432.63C432.422 45.7021 432.229 45.5303 432.229 45.3084C432.229 45.0865 432.408 44.9219 432.63 44.9219H433.861C434.262 44.9219 434.484 45.1939 434.484 45.5303V46.06C434.484 47.1982 433.56 48.1359 432.222 48.1359C430.883 48.1359 429.888 47.1338 429.788 45.8238C429.752 45.3943 429.752 44.9505 429.788 44.521C429.888 43.2182 430.869 42.2089 432.222 42.2089C433.188 42.2089 433.947 42.667 434.291 43.4187" fill="#020202"/>
<path d="M332.093 32.7316C332.093 31.4359 333.145 30.3837 334.441 30.3837C335.736 30.3837 336.789 31.4359 336.789 32.7316C336.789 34.0272 335.736 35.0794 334.441 35.0794C333.145 35.0794 332.093 34.0272 332.093 32.7316Z" fill="white"/>
<path d="M334.447 35.602C332.858 35.602 331.57 34.3135 331.57 32.7244C331.57 31.1353 332.858 29.8468 334.447 29.8468C336.037 29.8468 337.325 31.1353 337.325 32.7244C337.325 34.3135 336.037 35.602 334.447 35.602ZM334.447 30.9062C333.438 30.9062 332.622 31.7222 332.622 32.7316C332.622 33.7409 333.438 34.5569 334.447 34.5569C335.457 34.5569 336.273 33.7409 336.273 32.7316C336.273 31.7222 335.457 30.9062 334.447 30.9062Z" fill="#020202"/>
<path d="M315.458 41.214C315.458 39.9184 316.51 38.8661 317.805 38.8661C319.101 38.8661 320.153 39.9184 320.153 41.214C320.153 42.5097 319.101 43.5619 317.805 43.5619C316.51 43.5619 315.458 42.5097 315.458 41.214Z" fill="white"/>
<path d="M317.805 44.0916C316.223 44.0916 314.927 42.8031 314.927 41.214C314.927 39.6249 316.216 38.3364 317.805 38.3364C319.394 38.3364 320.682 39.6249 320.682 41.214C320.682 42.8031 319.394 44.0916 317.805 44.0916ZM317.805 39.3887C316.803 39.3887 315.98 40.2047 315.98 41.214C315.98 42.2233 316.796 43.0394 317.805 43.0394C318.814 43.0394 319.63 42.2233 319.63 41.214C319.63 40.2047 318.814 39.3887 317.805 39.3887Z" fill="#020202"/>
<path d="M302.93 36.9477C302.93 35.6521 303.982 34.5999 305.278 34.5999C306.574 34.5999 307.626 35.6521 307.626 36.9477C307.626 38.2434 306.574 39.2956 305.278 39.2956C303.982 39.2956 302.93 38.2434 302.93 36.9477Z" fill="white"/>
<path d="M305.278 39.8254C303.689 39.8254 302.4 38.537 302.4 36.9478C302.4 35.3587 303.689 34.0703 305.278 34.0703C306.867 34.0703 308.156 35.3587 308.156 36.9478C308.156 38.537 306.867 39.8254 305.278 39.8254ZM305.278 35.1225C304.269 35.1225 303.453 35.9385 303.453 36.9478C303.453 37.9571 304.269 38.7732 305.278 38.7732C306.287 38.7732 307.103 37.9571 307.103 36.9478C307.103 35.9385 306.287 35.1225 305.278 35.1225Z" fill="#020202"/>
<path d="M11.2511 49.0793H9.90353L9.82769 47.3088C9.35824 47.9311 8.74597 48.4313 8.04257 48.7672C7.3046 49.1245 6.49396 49.3062 5.67408 49.2981C4.70236 49.3137 3.7443 49.0679 2.90014 48.5864C2.0929 48.1215 1.42509 47.4486 0.966263 46.6379C0.502908 45.782 0.260254 44.8241 0.260254 43.8508C0.260254 42.8776 0.502908 41.9197 0.966263 41.0638C1.4275 40.2564 2.09487 39.586 2.90014 39.1212C3.7443 38.6396 4.70236 38.3938 5.67408 38.4094C6.47358 38.4012 7.26483 38.5716 7.99007 38.9082C8.67614 39.223 9.2764 39.6982 9.74019 40.2937V33.3866H11.2453L11.2511 49.0793ZM5.78784 47.9272C6.4839 47.9348 7.16981 47.7598 7.77714 47.4196C8.36834 47.0911 8.86313 46.6134 9.21223 46.0341C9.57172 45.4336 9.75657 44.7447 9.74602 44.0448V43.6248C9.75512 42.9387 9.57788 42.263 9.23321 41.6697C8.88853 41.0764 8.38933 40.5877 7.78881 40.2558C7.1768 39.9171 6.48728 39.7432 5.78784 39.7512C5.08318 39.7396 4.38861 39.9197 3.7783 40.2721C3.16799 40.6245 2.66485 41.1361 2.32261 41.7522C1.96762 42.3881 1.78747 43.1067 1.80049 43.8348C1.78858 44.5665 1.9686 45.2886 2.32261 45.9291C2.65852 46.5335 3.14998 47.037 3.74603 47.3875C4.36375 47.7534 5.06992 47.9431 5.78784 47.9359V47.9272Z" fill="#020202"/>
<path d="M23.9568 47.7901C22.7428 48.7655 21.2322 49.2975 19.6749 49.2981C18.6554 49.3157 17.6493 49.0642 16.758 48.5689C15.911 48.1013 15.2056 47.4141 14.7162 46.5796C14.2135 45.714 13.9563 44.7277 13.9724 43.7269C13.9572 42.7724 14.1937 41.8308 14.6579 40.9967C15.1033 40.2062 15.7544 39.551 16.5421 39.1007C17.3735 38.6316 18.315 38.393 19.2694 38.4094C20.2233 38.3835 21.1644 38.6334 21.9798 39.129C22.7952 39.6247 23.4503 40.3451 23.8664 41.2038C24.3258 42.1499 24.5537 43.1916 24.5314 44.2431V44.5698H15.5912C15.685 45.2073 15.9411 45.81 16.3351 46.32C16.7307 46.822 17.2408 47.2221 17.8226 47.4867C18.4526 47.7762 19.1391 47.9216 19.8324 47.9126C21.076 47.9116 22.2797 47.4739 23.2334 46.6758L23.9568 47.7901ZM15.5504 43.2777H23.1168C23.0638 42.6274 22.8557 41.9992 22.5101 41.4459C22.1833 40.9309 21.7292 40.5089 21.1916 40.2208C20.6182 39.9293 19.9841 39.7773 19.3409 39.7773C18.6976 39.7773 18.0635 39.9293 17.4901 40.2208C16.9502 40.511 16.4918 40.9323 16.1571 41.4459C15.8043 41.9958 15.5956 42.6258 15.5504 43.2777Z" fill="#020202"/>
<path d="M26.5269 48.178L26.944 46.775C27.201 47.0154 27.4883 47.2213 27.7986 47.3875C28.1164 47.5586 28.4532 47.6917 28.802 47.7842C29.1482 47.8777 29.5051 47.9257 29.8637 47.9271C30.4546 47.9547 31.038 47.7866 31.5234 47.4488C31.7226 47.31 31.8845 47.1243 31.9949 46.9081C32.1053 46.6919 32.1607 46.4518 32.1564 46.2091C32.1696 45.8754 32.0536 45.5494 31.8326 45.299C31.5937 45.0425 31.3074 44.8345 30.9897 44.6865C30.6455 44.5144 30.2721 44.354 29.8754 44.1994C29.4087 44.0185 28.9478 43.8124 28.4928 43.581C28.0582 43.3645 27.6745 43.0583 27.3669 42.6826C27.0556 42.262 26.899 41.7469 26.9235 41.2242C26.9112 40.6943 27.0608 40.1733 27.3523 39.7307C27.652 39.2987 28.0676 38.96 28.5512 38.7536C29.1035 38.5157 29.6999 38.3974 30.3013 38.4065C31.3184 38.4141 32.3188 38.6662 33.2181 39.1415L32.7573 40.4891C32.5211 40.3414 32.271 40.2174 32.0106 40.1187C31.7264 40.0106 31.4337 39.9267 31.1355 39.8678C30.8591 39.8105 30.5777 39.7802 30.2954 39.7774C29.8195 39.7555 29.3497 39.892 28.9595 40.1654C28.7974 40.2839 28.6664 40.4401 28.578 40.6205C28.4896 40.8009 28.4464 41 28.452 41.2008C28.4484 41.4488 28.5251 41.6914 28.6707 41.8921C28.8628 42.1325 29.102 42.3311 29.3737 42.4755C29.7829 42.7018 30.2056 42.9025 30.6396 43.0764C31.1235 43.273 31.5967 43.495 32.0572 43.7414C32.5075 43.9734 32.9048 44.2962 33.224 44.6894C33.5473 45.1226 33.7102 45.6546 33.6848 46.1945C33.6957 46.7683 33.5297 47.3314 33.2094 47.8075C32.8772 48.2861 32.4202 48.6644 31.888 48.9014C31.2746 49.175 30.6082 49.3094 29.9367 49.2951C28.7105 49.2928 27.5167 48.9017 26.5269 48.178Z" fill="#020202"/>
<path d="M37.3423 35.1337C37.2165 35.136 37.0917 35.1111 36.9765 35.0607C36.8612 35.0104 36.7581 34.9358 36.6743 34.842C36.4968 34.6584 36.3992 34.412 36.403 34.1566C36.4004 34.0318 36.4231 33.9077 36.4697 33.7919C36.5164 33.6761 36.5859 33.571 36.6743 33.4828C36.7601 33.3926 36.8639 33.3213 36.979 33.2736C37.094 33.2258 37.2178 33.2027 37.3423 33.2057C37.4703 33.2021 37.5977 33.2249 37.7166 33.2725C37.8356 33.3202 37.9434 33.3918 38.0336 33.4828C38.1267 33.5683 38.2009 33.6725 38.2511 33.7886C38.3014 33.9047 38.3266 34.0301 38.3252 34.1566C38.3264 34.2848 38.302 34.4121 38.2535 34.5308C38.2049 34.6495 38.1332 34.7574 38.0425 34.8481C37.9518 34.9388 37.8439 35.0105 37.7252 35.059C37.6065 35.1076 37.4793 35.132 37.351 35.1308L37.3423 35.1337ZM38.0977 49.0793H36.5926V38.6194H38.089L38.0977 49.0793Z" fill="#020202"/>
<path d="M46.1541 49.056C45.2294 49.0738 44.3171 48.8413 43.5136 48.3834C42.7101 47.9254 42.0452 47.2588 41.5892 46.4542C41.1356 45.6194 40.8979 44.6843 40.8979 43.7342C40.8979 42.7841 41.1356 41.849 41.5892 41.0142C42.0476 40.2097 42.7142 39.5435 43.519 39.0857C44.3238 38.6278 45.2371 38.3953 46.1629 38.4124C46.9709 38.4039 47.7698 38.5837 48.4964 38.9374C49.1862 39.2675 49.7865 39.7587 50.2465 40.3696L50.3194 38.6195H51.6495V48.8285C51.6766 49.8834 51.4422 50.9286 50.967 51.8708C50.533 52.7069 49.8584 53.3938 49.0302 53.8426C47.8601 54.4293 46.5406 54.6505 45.2433 54.4773C43.9459 54.304 42.7306 53.7445 41.7555 52.8713L42.4264 51.6754C42.8823 52.1588 43.4346 52.541 44.0476 52.7972C44.6607 53.0535 45.3207 53.1781 45.985 53.163C46.759 53.1836 47.5247 52.9995 48.2047 52.6292C48.8232 52.2752 49.3234 51.7466 49.6427 51.1095C49.9977 50.384 50.1718 49.5834 50.1502 48.776V47.1746C49.6865 47.7525 49.0982 48.2182 48.4293 48.5368C47.721 48.8826 46.9424 49.0603 46.1541 49.056ZM46.2796 47.7259C46.9562 47.7352 47.6237 47.5683 48.2164 47.2417C48.7853 46.9233 49.264 46.4656 49.6077 45.9116C49.9599 45.3364 50.1476 44.6756 50.1502 44.0011V43.4673C50.1497 42.7907 49.9619 42.1274 49.6077 41.5509C49.2637 40.9987 48.785 40.5429 48.2164 40.2267C47.6239 39.8992 46.9565 39.7313 46.2796 39.7396C45.5855 39.7288 44.9019 39.9105 44.3048 40.2646C43.7244 40.6083 43.2461 41.1007 42.9193 41.6909C42.5823 42.3187 42.4059 43.0202 42.4059 43.7327C42.4059 44.4453 42.5823 45.1467 42.9193 45.7745C43.2473 46.3646 43.7253 46.8576 44.3048 47.2038C44.9022 47.5569 45.5857 47.7376 46.2796 47.7259Z" fill="#020202"/>
<path d="M64.7812 49.0792H63.2732V43.2455C63.323 42.3241 63.0087 41.4201 62.3982 40.7283C62.0916 40.4131 61.7218 40.1665 61.3131 40.0046C60.9043 39.8427 60.4659 39.7692 60.0268 39.789C59.568 39.7707 59.1106 39.8499 58.6848 40.0214C58.2589 40.1928 57.8742 40.4526 57.5562 40.7837C56.9069 41.5053 56.5683 42.4538 56.614 43.4234V49.0792H55.1177V38.6194H56.4273L56.4798 40.4512C56.8329 39.8111 57.361 39.285 58.0024 38.9344C58.7041 38.5694 59.487 38.3888 60.2776 38.4094C61.6758 38.4094 62.7754 38.8284 63.5766 39.6665C64.3777 40.5046 64.7793 41.6558 64.7812 43.1201V49.0792Z" fill="#020202"/>
<path d="M34.1542 28.078H28.9856V17.309C28.9856 15.4033 28.5898 13.9225 27.7984 12.8666C27.007 11.8107 25.8908 11.2817 24.4498 11.2798C23.7939 11.2521 23.141 11.3829 22.5464 11.6611C21.9519 11.9394 21.4331 12.3569 21.0342 12.8782C20.2136 13.9439 19.8042 15.4208 19.8062 17.309V28.1013H14.6375V17.309C14.6375 15.4033 14.2389 13.9225 13.4416 12.8666C13.0563 12.35 12.5506 11.9354 11.9685 11.6589C11.3865 11.3823 10.7456 11.2522 10.1018 11.2798C8.63169 11.2798 7.48634 11.8126 6.66572 12.8782C5.84511 13.9439 5.43578 15.4208 5.43773 17.309V28.1013H0.269043V7.0766H4.40807L4.59767 10.6468C5.25022 9.40951 6.23646 8.37981 7.44453 7.67455C8.72598 6.97037 10.1714 6.61907 11.6331 6.65657C13.144 6.6154 14.6373 6.98972 15.9501 7.73872C17.1698 8.46669 18.1409 9.54653 18.7357 10.8364C19.3682 9.53701 20.3682 8.45181 21.6117 7.71539C22.928 6.98544 24.4152 6.61993 25.9199 6.65657C28.5101 6.65657 30.5305 7.47912 31.9812 9.12423C33.4318 10.7693 34.1562 13.0552 34.1542 15.9818V28.078Z" fill="#020202"/>
<path d="M42.4267 16.4104C42.5329 15.689 42.7628 14.9914 43.1064 14.3482C43.5942 13.4284 44.3194 12.6559 45.2065 12.111C46.1147 11.5744 47.1502 11.2914 48.205 11.2914C49.2599 11.2914 50.2954 11.5744 51.2036 12.111C52.087 12.6578 52.8088 13.43 53.295 14.3482C53.6385 14.9914 53.8684 15.689 53.9746 16.4104H59.2862C59.1593 14.8475 58.687 13.3322 57.9036 11.9739C56.9579 10.3432 55.5907 8.99708 53.9454 8.07694C52.1806 7.14044 50.2132 6.65076 48.2153 6.65076C46.2173 6.65076 44.2499 7.14044 42.4851 8.07694C40.9701 8.91531 39.6853 10.1144 38.7445 11.5681C37.8038 13.0217 37.2361 14.6849 37.0918 16.4104H42.4267Z" fill="#020202"/>
<path d="M53.9571 18.744C53.8499 19.4578 53.622 20.1483 53.2833 20.7858C52.7998 21.7082 52.0775 22.4838 51.1919 23.0317C50.2837 23.5683 49.2482 23.8513 48.1934 23.8513C47.1385 23.8513 46.103 23.5683 45.1948 23.0317C44.3053 22.4859 43.5796 21.7099 43.0947 20.7858C42.756 20.1483 42.5281 19.4578 42.4209 18.744H37.0918C37.2377 20.4678 37.8061 22.1292 38.7468 23.5811C39.6875 25.0331 40.9714 26.2309 42.4851 27.0687C44.2493 28.0072 46.217 28.498 48.2153 28.498C50.2135 28.498 52.1812 28.0072 53.9454 27.0687C55.5916 26.1497 56.9591 24.8034 57.9036 23.1718C58.6856 21.816 59.1578 20.3038 59.2862 18.744H53.9571Z" fill="#020202"/>
<path d="M95.0347 23.755C94.3884 23.629 93.7699 23.388 93.2088 23.0433C92.3192 22.4975 91.5936 21.7215 91.1087 20.7974C90.5893 19.8044 90.3256 18.6976 90.3415 17.5771C90.3233 16.4601 90.5872 15.3566 91.1087 14.3686C91.5965 13.4488 92.3216 12.6763 93.2088 12.1314C93.7695 11.7864 94.3882 11.5463 95.0347 11.4226V6.71765C93.4421 6.84244 91.8951 7.30904 90.499 8.08566C88.8455 9.00594 87.4679 10.3513 86.5088 11.9826C85.5218 13.6818 85.0176 15.6182 85.0503 17.583C85.0181 19.5467 85.5224 21.4821 86.5088 23.1804C87.467 24.8124 88.8448 26.158 90.499 27.0774C91.8949 27.8549 93.4419 28.3225 95.0347 28.4483V23.755Z" fill="#020202"/>
<path d="M105.918 11.9826C104.973 10.351 103.606 9.00461 101.96 8.08563C100.548 7.29837 98.9809 6.82947 97.3687 6.71179V11.4079C98.0194 11.5314 98.6421 11.7726 99.2063 12.1197C100.09 12.6665 100.812 13.4387 101.298 14.3569C101.819 15.3449 102.083 16.4484 102.065 17.5654C102.081 18.6859 101.817 19.7927 101.298 20.7857C100.814 21.7081 100.092 22.4837 99.2063 23.0316C98.6434 23.3812 98.0201 23.6226 97.3687 23.7434V28.4424C98.9813 28.3248 100.549 27.8548 101.96 27.0657C103.607 26.1476 104.974 24.8011 105.918 23.1687C106.892 21.4682 107.39 19.5366 107.359 17.5771C107.39 15.6167 106.892 13.6841 105.918 11.9826Z" fill="#020202"/>
<path d="M79.9955 9.11832C78.5448 7.47321 76.5244 6.65065 73.9342 6.65065C72.4304 6.61298 70.9438 6.97857 69.629 7.70947C68.5104 8.36741 67.5888 9.31323 66.96 10.4484L66.7821 7.07652H62.6431V28.0779H67.8205V17.3089C67.8205 15.4187 68.2308 13.9418 69.0514 12.8782C69.872 11.8145 71.0115 11.2817 72.47 11.2797C73.9109 11.2797 75.0281 11.8086 75.8215 12.8665C76.6148 13.9243 77.0096 15.4051 77.0057 17.3089V28.1013H82.1744V15.9846C82.1705 13.06 81.4442 10.7712 79.9955 9.11832Z" fill="#020202"/>
<path d="M265.4 14.6545H256.436V23.6192H265.4V14.6545Z" fill="#020202"/>
<path d="M249.463 30.5913V23.6192L240.499 14.6545H224.562V30.5913C224.562 34.4421 221.44 37.5639 217.59 37.5639C213.739 37.5639 210.618 34.4421 210.618 30.5913V14.6545H201.653V30.5913C201.653 33.092 202.229 35.4575 203.256 37.5639H184.72V14.6545H175.755V26.7041C174.02 19.7816 167.757 14.6545 160.297 14.6545H144.36V37.5639H153.325V23.6192H160.297C164.148 23.6192 167.27 26.741 167.27 30.5913C167.27 34.4417 164.148 37.5639 160.297 37.5639H153.325V46.5282H160.297C167.758 46.5282 174.02 41.401 175.755 34.4785V46.5282H203.645V38.3107C206.363 43.211 211.589 46.5282 217.59 46.5282C226.391 46.5282 233.526 39.393 233.526 30.5913V21.6271L242.491 30.5913L233.526 39.556V46.5282H240.499L249.463 37.5639L258.428 46.5282H265.4V39.556L256.436 30.5913H249.463Z" fill="#020202"/>
</svg>
