<svg width="186" height="85" viewBox="0 0 186 85" fill="none" xmlns="http://www.w3.org/2000/svg">
<path d="M44.171 25.7859L3.31836 49.2866L5.54796 53.1624L46.4006 29.6617L44.171 25.7859Z" fill="#020202"/>
<path d="M57.0489 54.9589H21.689V59.4302H57.0489V54.9589Z" fill="#020202"/>
<path d="M43.2119 44.4674L28.6841 79.978L32.8225 81.6711L47.3503 46.1605L43.2119 44.4674Z" fill="#020202"/>
<path d="M54.8221 57.4552C53.5689 46.6979 49.268 35.8503 43.5835 29.1634L46.9821 26.266C53.2982 33.7049 57.8899 45.164 59.2533 56.9339L54.8121 57.4452L54.8221 57.4552Z" fill="#020202"/>
<path d="M31.533 82.9199L29.979 78.7292C42.3104 74.1375 50.4912 66.8089 54.9926 56.3123L59.093 58.0767C54.0803 69.7564 45.0674 77.877 31.533 82.9199Z" fill="#020202"/>
<path d="M53.9702 57.1944C53.9702 55.5001 55.3437 54.1266 57.038 54.1266C58.7323 54.1266 60.1058 55.5001 60.1058 57.1944C60.1058 58.8888 58.7323 60.2622 57.038 60.2622C55.3437 60.2622 53.9702 58.8888 53.9702 57.1944Z" fill="white"/>
<path d="M57.0382 61.0042C54.9429 61.0042 53.2285 59.2999 53.2285 57.1946C53.2285 55.0892 54.9328 53.3849 57.0382 53.3849C59.1436 53.3849 60.8479 55.0892 60.8479 57.1946C60.8479 59.2999 59.1436 61.0042 57.0382 61.0042ZM57.0382 54.8586C55.7449 54.8586 54.7023 55.9113 54.7023 57.1946C54.7023 58.4778 55.7449 59.5305 57.0382 59.5305C58.3315 59.5305 59.3741 58.4778 59.3741 57.1946C59.3741 55.9113 58.3215 54.8586 57.0382 54.8586Z" fill="#020202"/>
<path d="M23.7772 56.3945L19.6025 57.9962L28.6703 81.6307L32.8449 80.029L23.7772 56.3945Z" fill="#020202"/>
<path d="M30.0389 82.94C16.5847 78.3885 7.0003 67.6412 2.29834 51.8611L6.57922 50.5878C10.8501 64.9243 19.452 74.649 31.4725 78.7193L30.0389 82.9501V82.94Z" fill="#020202"/>
<path d="M27.4629 80.3032C27.4629 78.4886 28.9366 77.0148 30.7513 77.0148C32.5659 77.0148 34.0396 78.4886 34.0396 80.3032C34.0396 82.1178 32.5659 83.5915 30.7513 83.5915C28.9366 83.5915 27.4629 82.1178 27.4629 80.3032Z" fill="white"/>
<path d="M30.7607 84.3335C28.5351 84.3335 26.7305 82.529 26.7305 80.3033C26.7305 78.0777 28.5351 76.2731 30.7607 76.2731C32.9864 76.2731 34.791 78.0777 34.791 80.3033C34.791 82.529 32.9864 84.3335 30.7607 84.3335ZM30.7607 77.7468C29.3471 77.7468 28.2042 78.8897 28.2042 80.3033C28.2042 81.7169 29.3471 82.8598 30.7607 82.8598C32.1743 82.8598 33.3172 81.7169 33.3172 80.3033C33.3172 78.8897 32.1743 77.7468 30.7607 77.7468Z" fill="#020202"/>
<path d="M43.9346 46.8583C34.4905 38.6074 28.8462 18.757 28.8462 4.34033H32.9466C32.9466 11.4083 34.3402 19.5991 36.7764 26.8275C39.3329 34.4368 42.8418 40.4521 46.6314 43.7705L43.9346 46.8583Z" fill="#020202"/>
<path d="M38.421 30.3665C29.8292 30.3665 22.4003 28.2912 15.0015 23.9302L17.2773 20.0804C25.7388 25.0831 34.3005 26.7473 45.0278 25.4941L45.5491 29.9354C43.0829 30.2262 40.7068 30.3665 38.431 30.3665" fill="#020202"/>
<path d="M6.62011 51.7207L2.26904 50.7182C6.96097 30.3965 16.0942 14.2255 29.4381 2.64606L32.3656 6.02464C19.7535 16.9624 11.0915 32.3415 6.62011 51.7307" fill="#020202"/>
<path d="M41.9897 27.7196C41.9897 25.905 43.4635 24.4313 45.2781 24.4313C47.0927 24.4313 48.5665 25.905 48.5665 27.7196C48.5665 29.5342 47.0927 31.008 45.2781 31.008C43.4635 31.008 41.9897 29.5342 41.9897 27.7196Z" fill="white"/>
<path d="M45.2871 31.74C43.0614 31.74 41.2568 29.9355 41.2568 27.7098C41.2568 25.4841 43.0614 23.6796 45.2871 23.6796C47.5127 23.6796 49.3173 25.4841 49.3173 27.7098C49.3173 29.9355 47.5127 31.74 45.2871 31.74ZM45.2871 25.1633C43.8735 25.1633 42.7306 26.3062 42.7306 27.7198C42.7306 29.1334 43.8735 30.2763 45.2871 30.2763C46.7007 30.2763 47.8436 29.1334 47.8436 27.7198C47.8436 26.3062 46.7007 25.1633 45.2871 25.1633Z" fill="#020202"/>
<path d="M18.3488 21.6617L13.9321 22.3589L19.486 57.5437L23.9027 56.8466L18.3488 21.6617Z" fill="#020202"/>
<path d="M12.8462 21.925C12.8462 20.1103 14.3199 18.6366 16.1346 18.6366C17.9492 18.6366 19.4229 20.1103 19.4229 21.925C19.4229 23.7396 17.9492 25.2133 16.1346 25.2133C14.3199 25.2133 12.8462 23.7396 12.8462 21.925Z" fill="white"/>
<path d="M16.1343 25.9551C13.9186 25.9551 12.104 24.1505 12.104 21.9248C12.104 19.6992 13.9086 17.8946 16.1343 17.8946C18.3599 17.8946 20.1645 19.6992 20.1645 21.9248C20.1645 24.1505 18.3599 25.9551 16.1343 25.9551ZM16.1343 19.3683C14.7307 19.3683 13.5778 20.5112 13.5778 21.9248C13.5778 23.3384 14.7207 24.4813 16.1343 24.4813C17.5478 24.4813 18.6908 23.3384 18.6908 21.9248C18.6908 20.5112 17.5478 19.3683 16.1343 19.3683Z" fill="#020202"/>
<path d="M27.6025 4.33028C27.6025 2.51567 29.0763 1.04193 30.8909 1.04193C32.7055 1.04193 34.1793 2.51567 34.1793 4.33028C34.1793 6.14489 32.7055 7.61863 30.8909 7.61863C29.0763 7.61863 27.6025 6.14489 27.6025 4.33028Z" fill="white"/>
<path d="M30.8911 8.36046C28.6755 8.36046 26.8608 6.55588 26.8608 4.33023C26.8608 2.10457 28.6654 0.299988 30.8911 0.299988C33.1167 0.299988 34.9213 2.10457 34.9213 4.33023C34.9213 6.55588 33.1167 8.36046 30.8911 8.36046ZM30.8911 1.77373C29.4875 1.77373 28.3346 2.91664 28.3346 4.33023C28.3346 5.74382 29.4775 6.88672 30.8911 6.88672C32.3047 6.88672 33.4476 5.74382 33.4476 4.33023C33.4476 2.91664 32.3047 1.77373 30.8911 1.77373Z" fill="#020202"/>
<path d="M95.4051 26.6971C95.4051 30.6371 93.5604 32.7825 91.3047 33.7951V33.8653C94.3424 34.7174 96.3074 37.4343 96.3074 41.3042C96.3074 47.7305 91.9564 50.6178 86.3321 50.6178H75.7552C73.1285 50.6178 71.6948 48.8233 71.6948 46.6578V22.1656C71.6948 20.0001 73.0984 18.1754 75.7552 18.1754H86.1015C92.1368 18.1754 95.4151 22.1856 95.4151 26.6971M76.9883 23.1681V31.8301H85.3997C88.6479 31.8301 90.1217 30.1659 90.1217 27.4991C90.1217 24.6619 88.5076 23.1681 85.3997 23.1681H76.9883ZM76.9883 36.1411V45.6352H85.7907C89.3397 45.6352 90.9739 43.9309 90.9739 40.8631C90.9739 37.7953 89.0891 36.1411 86.0413 36.1411H76.9883Z" fill="#020202"/>
<path d="M129.301 48.1717C129.301 49.6454 128.128 50.8485 126.654 50.8485C125.571 50.8485 124.509 50.1767 124.168 49.094L121.261 40.843H107.686L104.759 49.094C104.388 50.1767 103.355 50.8485 102.272 50.8485C100.798 50.8485 99.6255 49.6454 99.6255 48.1717C99.6255 47.7606 99.7358 47.3897 99.8761 46.9987L108.959 22.1054C109.952 19.3885 111.867 17.9549 114.493 17.9549C117.12 17.9549 119.075 19.3885 120.047 22.1054L129.06 46.9987C129.201 47.3897 129.311 47.7606 129.311 48.1717M119.596 36.121L115.376 24.1105C115.195 23.6293 114.894 23.3686 114.473 23.3686C114.032 23.3686 113.781 23.5992 113.571 24.1306L109.33 36.111H119.586L119.596 36.121Z" fill="#020202"/>
<path d="M157.002 20.6116C157.002 21.2833 156.771 21.8548 156.29 22.4363L146.425 34.4869C145.362 35.8002 145.182 36.1511 145.182 37.1136V48.0814C145.182 49.6454 144.099 50.8484 142.485 50.8484C140.991 50.8484 139.838 49.5852 139.838 48.0814V37.1136C139.838 36.1912 139.678 35.8203 138.545 34.4368L128.73 22.4262C128.249 21.8548 128.018 21.2733 128.018 20.6016C128.018 19.1279 129.221 17.9248 130.715 17.9248C131.547 17.9248 132.349 18.3359 132.931 19.0577L142.515 31.0181L152.099 19.0577C152.681 18.3459 153.483 17.9248 154.315 17.9248C155.809 17.9248 157.012 19.1178 157.012 20.6016" fill="#020202"/>
<path d="M185.394 48.1717C185.394 49.6454 184.221 50.8485 182.747 50.8485C181.664 50.8485 180.602 50.1767 180.261 49.094L177.353 40.843H163.779L160.851 49.094C160.48 50.1767 159.448 50.8485 158.365 50.8485C156.891 50.8485 155.718 49.6454 155.718 48.1717C155.718 47.7606 155.829 47.3897 155.969 46.9987L165.052 22.1054C166.045 19.3885 167.959 17.9549 170.586 17.9549C173.213 17.9549 175.168 19.3885 176.14 22.1054L185.153 46.9987C185.293 47.3897 185.404 47.7606 185.404 48.1717M175.689 36.121L171.468 24.1105C171.288 23.6293 170.987 23.3686 170.566 23.3686C170.125 23.3686 169.874 23.5992 169.664 24.1306L165.423 36.111H175.679L175.689 36.121Z" fill="#020202"/>
<path d="M78.0213 60.4529C78.0715 60.5632 78.0815 60.6634 78.0815 60.7536C78.0815 61.0644 77.8008 61.3151 77.51 61.3151C77.2193 61.3151 77.0789 61.1346 76.9787 60.9542C76.6579 60.2023 75.926 59.721 75.0738 59.721C73.8207 59.721 73.0086 60.6534 72.9083 61.9166C72.8783 62.458 72.8783 63.0094 72.9083 63.5608C73.0086 64.844 73.8207 65.7463 75.0738 65.7463C75.926 65.7463 76.6579 65.2651 76.9787 64.5132C77.0789 64.3227 77.2193 64.1523 77.51 64.1523C77.8008 64.1523 78.0815 64.3829 78.0815 64.7137C78.0815 64.814 78.0715 64.9042 78.0213 65.0145C77.5602 66.1774 76.3571 66.8692 75.0638 66.8692C73.169 66.8692 71.8657 65.4656 71.7353 63.631C71.6852 63.0294 71.6852 62.4079 71.7353 61.8063C71.8657 59.9917 73.179 58.5781 75.0638 58.5781C76.3571 58.5781 77.5501 59.2699 78.0213 60.4328" fill="#020202"/>
<path d="M85.4999 61.2347C85.4999 62.4779 84.8483 63.2899 83.6653 63.5005L85.5801 65.8264C85.6704 65.9366 85.7405 66.057 85.7405 66.2374C85.7405 66.5682 85.4799 66.8389 85.149 66.8389C84.9886 66.8389 84.8182 66.7788 84.6778 66.5983L82.6928 64.112C82.5123 63.8814 82.372 63.7411 82.0512 63.7411H80.798V66.2174C80.798 66.5482 80.5574 66.8189 80.2065 66.8189C79.8556 66.8189 79.625 66.5382 79.625 66.2174V59.5404C79.625 59.1193 79.8756 58.6882 80.5072 58.6882H82.8432C84.3871 58.6882 85.4999 59.6407 85.4999 61.2247M80.798 59.8011V62.6483H82.6527C83.8858 62.6483 84.327 62.0768 84.327 61.2347C84.327 60.3926 83.8257 59.8011 82.773 59.8011H80.798Z" fill="#020202"/>
<path d="M92.7487 59.2598C92.7487 59.5706 92.4981 59.8212 92.1773 59.8212H88.518V62.1973H91.9667C92.2675 62.1973 92.5081 62.4279 92.5081 62.7286C92.5081 63.0294 92.2675 63.26 91.9667 63.26H88.518V65.6761H92.1973C92.5181 65.6761 92.7688 65.9268 92.7688 66.2375C92.7688 66.5483 92.5181 66.799 92.1973 66.799H88.2573C87.6558 66.799 87.335 66.3879 87.335 65.8867V59.6207C87.335 59.1295 87.6558 58.7184 88.2573 58.7184H92.1672C92.4881 58.7184 92.7387 58.9691 92.7387 59.2799" fill="#020202"/>
<path d="M100.959 66.2476C100.959 66.5684 100.698 66.829 100.378 66.829C100.137 66.829 99.9063 66.6887 99.8261 66.4481L99.0441 64.2425H95.5553L94.7632 66.4481C94.673 66.6887 94.4424 66.829 94.2118 66.829C93.881 66.829 93.6304 66.5684 93.6304 66.2476C93.6304 66.1473 93.6604 66.0671 93.6905 65.9668L96.0064 59.6207C96.247 58.9791 96.6781 58.6483 97.2897 58.6483C97.9012 58.6483 98.3624 58.9791 98.593 59.6308L100.899 65.9769C100.929 66.0671 100.959 66.1573 100.959 66.2576M98.6732 63.1898L97.5604 60.0418C97.5102 59.9014 97.42 59.8313 97.2997 59.8313C97.1794 59.8313 97.1092 59.9014 97.0491 60.0518L95.9262 63.1998H98.6632L98.6732 63.1898Z" fill="#020202"/>
<path d="M107.085 59.2798C107.085 59.6006 106.804 59.8613 106.483 59.8613H104.368V66.2274C104.368 66.5683 104.127 66.829 103.786 66.829C103.445 66.829 103.195 66.5583 103.195 66.2274V59.8613H101.069C100.738 59.8613 100.468 59.5906 100.468 59.2798C100.468 58.969 100.738 58.6983 101.069 58.6983H106.483C106.814 58.6983 107.085 58.9489 107.085 59.2798Z" fill="#020202"/>
<path d="M109.441 59.2498V66.2275C109.441 66.5684 109.19 66.829 108.859 66.829C108.528 66.829 108.278 66.5684 108.278 66.2275V59.2498C108.278 58.9189 108.549 58.6483 108.859 58.6483C109.19 58.6483 109.441 58.9189 109.441 59.2498Z" fill="#020202"/>
<path d="M117.902 59.2297C117.902 59.33 117.872 59.4102 117.842 59.5004L115.506 65.8064C115.266 66.4681 114.925 66.829 114.283 66.829C113.641 66.829 113.29 66.428 113.06 65.8064L110.734 59.5004C110.704 59.4102 110.674 59.33 110.674 59.2297C110.674 58.9089 110.934 58.6483 111.255 58.6483C111.496 58.6483 111.716 58.7986 111.807 59.0292L114.143 65.5157C114.173 65.5859 114.213 65.626 114.283 65.626C114.343 65.626 114.383 65.5959 114.413 65.5157L116.749 59.0292C116.829 58.7886 117.06 58.6483 117.291 58.6483C117.621 58.6483 117.872 58.9089 117.872 59.2297" fill="#020202"/>
<path d="M124.549 59.2598C124.549 59.5706 124.298 59.8212 123.978 59.8212H120.318V62.1973H123.767C124.068 62.1973 124.308 62.4279 124.308 62.7286C124.308 63.0294 124.068 63.26 123.767 63.26H120.318V65.6761H123.998C124.318 65.6761 124.569 65.9268 124.569 66.2375C124.569 66.5483 124.318 66.799 123.998 66.799H120.058C119.456 66.799 119.135 66.3879 119.135 65.8867V59.6207C119.135 59.1295 119.456 58.7184 120.058 58.7184H123.968C124.288 58.7184 124.539 58.9691 124.539 59.2799" fill="#020202"/>
<path d="M130.575 59.2497V65.6159H134.124C134.435 65.6159 134.726 65.8766 134.726 66.1974C134.726 66.5182 134.445 66.7688 134.124 66.7688H130.214C129.683 66.7688 129.402 66.3979 129.402 65.9568V59.2397C129.402 58.9089 129.673 58.6382 129.984 58.6382C130.315 58.6382 130.565 58.9089 130.565 59.2397" fill="#020202"/>
<path d="M141.182 59.2598C141.182 59.5706 140.932 59.8212 140.611 59.8212H136.952V62.1973H140.4C140.701 62.1973 140.942 62.4279 140.942 62.7286C140.942 63.0294 140.701 63.26 140.4 63.26H136.952V65.6761H140.631C140.952 65.6761 141.202 65.9268 141.202 66.2375C141.202 66.5483 140.952 66.799 140.631 66.799H136.691C136.089 66.799 135.769 66.3879 135.769 65.8867V59.6207C135.769 59.1295 136.089 58.7184 136.691 58.7184H140.601C140.922 58.7184 141.172 58.9691 141.172 59.2799" fill="#020202"/>
<path d="M149.393 66.2476C149.393 66.5684 149.132 66.829 148.811 66.829C148.571 66.829 148.34 66.6887 148.26 66.4481L147.478 64.2425H143.989L143.197 66.4481C143.107 66.6887 142.876 66.829 142.645 66.829C142.315 66.829 142.064 66.5684 142.064 66.2476C142.064 66.1473 142.094 66.0671 142.124 65.9668L144.44 59.6207C144.681 58.9791 145.112 58.6483 145.723 58.6483C146.335 58.6483 146.796 58.9791 147.017 59.6308L149.322 65.9769C149.353 66.0671 149.383 66.1573 149.383 66.2576M147.097 63.1898L145.984 60.0418C145.934 59.9014 145.844 59.8313 145.723 59.8313C145.603 59.8313 145.533 59.9014 145.473 60.0518L144.35 63.1998H147.087L147.097 63.1898Z" fill="#020202"/>
<path d="M156.511 61.2347C156.511 62.4779 155.859 63.2899 154.676 63.5005L156.591 65.8264C156.681 65.9366 156.751 66.057 156.751 66.2374C156.751 66.5682 156.491 66.8389 156.16 66.8389C155.999 66.8389 155.829 66.7788 155.689 66.5983L153.704 64.112C153.523 63.8814 153.383 63.7411 153.062 63.7411H151.809V66.2174C151.809 66.5482 151.568 66.8189 151.217 66.8189C150.866 66.8189 150.636 66.5382 150.636 66.2174V59.5404C150.636 59.1193 150.886 58.6882 151.518 58.6882H153.854C155.398 58.6882 156.511 59.6407 156.511 61.2247M151.809 59.8011V62.6483H153.663C154.897 62.6483 155.338 62.0768 155.338 61.2347C155.338 60.3926 154.836 59.8011 153.784 59.8011H151.809Z" fill="#020202"/>
<path d="M160.22 59.1897L163.929 65.3854H163.959C163.889 64.2225 163.889 62.1773 163.889 60.7737V59.2599C163.889 58.919 164.16 58.6583 164.471 58.6583C164.802 58.6583 165.052 58.919 165.052 59.2599V65.8666C165.052 66.3579 164.711 66.8391 164.12 66.8391C163.649 66.8391 163.388 66.5885 163.157 66.1874L159.488 60.0519H159.458C159.528 61.0945 159.528 62.7988 159.528 64.0821V66.2376C159.528 66.5684 159.308 66.8391 158.947 66.8391C158.586 66.8391 158.365 66.5684 158.365 66.2376V59.6909C158.365 59.1195 158.726 58.6583 159.328 58.6583C159.699 58.6583 160.009 58.8187 160.22 59.1997" fill="#020202"/>
<path d="M168.3 59.2498V66.2275C168.3 66.5684 168.05 66.829 167.719 66.829C167.388 66.829 167.137 66.5684 167.137 66.2275V59.2498C167.137 58.9189 167.408 58.6483 167.719 58.6483C168.05 58.6483 168.3 58.9189 168.3 59.2498Z" fill="#020202"/>
<path d="M172.231 59.1897L175.94 65.3854H175.97C175.9 64.2225 175.9 62.1773 175.9 60.7737V59.2599C175.9 58.919 176.171 58.6583 176.481 58.6583C176.812 58.6583 177.063 58.919 177.063 59.2599V65.8666C177.063 66.3579 176.722 66.8391 176.131 66.8391C175.659 66.8391 175.399 66.5885 175.168 66.1874L171.499 60.0519H171.469C171.539 61.0945 171.539 62.7988 171.539 64.0821V66.2376C171.539 66.5684 171.318 66.8391 170.957 66.8391C170.597 66.8391 170.376 66.5684 170.376 66.2376V59.6909C170.376 59.1195 170.737 58.6583 171.338 58.6583C171.709 58.6583 172.02 58.8187 172.231 59.1997" fill="#020202"/>
<path d="M185.123 60.2923C185.174 60.3825 185.214 60.5028 185.214 60.6331C185.214 60.9339 184.953 61.1946 184.652 61.1946C184.392 61.1946 184.231 61.0442 184.151 60.8838C183.84 60.172 183.168 59.7208 182.226 59.7208C180.983 59.7208 180.111 60.573 179.98 61.9565C179.92 62.5881 179.93 63.1495 180 63.6709C180.171 64.9541 180.883 65.7862 182.266 65.7862C183.499 65.7862 184.261 65.0544 184.261 64.102V63.4804H182.798C182.507 63.4804 182.236 63.2398 182.236 62.929C182.236 62.6182 182.487 62.3876 182.798 62.3876H184.522C185.083 62.3876 185.394 62.7686 185.394 63.2398V63.9816C185.394 65.5757 184.101 66.889 182.226 66.889C180.351 66.889 178.958 65.4855 178.817 63.6508C178.767 63.0493 178.767 62.4277 178.817 61.8262C178.958 60.0015 180.331 58.588 182.226 58.588C183.579 58.588 184.642 59.2296 185.123 60.2823" fill="#020202"/>
<path d="M41.9897 45.3144C41.9897 43.4997 43.4635 42.026 45.2781 42.026C47.0927 42.026 48.5665 43.4997 48.5665 45.3144C48.5665 47.129 47.0927 48.6027 45.2781 48.6027C43.4635 48.6027 41.9897 47.129 41.9897 45.3144Z" fill="white"/>
<path d="M45.2871 49.3345C43.0614 49.3345 41.2568 47.5299 41.2568 45.3043C41.2568 43.0786 43.0614 41.274 45.2871 41.274C47.5127 41.274 49.3173 43.0786 49.3173 45.3043C49.3173 47.5299 47.5127 49.3345 45.2871 49.3345ZM45.2871 42.7578C43.8735 42.7578 42.7306 43.9007 42.7306 45.3143C42.7306 46.7279 43.8735 47.8708 45.2871 47.8708C46.7007 47.8708 47.8436 46.7279 47.8436 45.3143C47.8436 43.9007 46.7007 42.7578 45.2871 42.7578Z" fill="#020202"/>
<path d="M18.6904 57.1945C18.6904 55.3799 20.1642 53.9062 21.9788 53.9062C23.7934 53.9062 25.2672 55.3799 25.2672 57.1945C25.2672 59.0092 23.7934 60.4829 21.9788 60.4829C20.1642 60.4829 18.6904 59.0092 18.6904 57.1945Z" fill="white"/>
<path d="M21.978 61.2248C19.7624 61.2248 17.9478 59.4202 17.9478 57.1945C17.9478 54.9689 19.7523 53.1643 21.978 53.1643C24.2037 53.1643 26.0083 54.9689 26.0083 57.1945C26.0083 59.4202 24.2037 61.2248 21.978 61.2248ZM21.978 54.6381C20.5744 54.6381 19.4215 55.781 19.4215 57.1945C19.4215 58.6081 20.5644 59.751 21.978 59.751C23.3916 59.751 24.5345 58.6081 24.5345 57.1945C24.5345 55.781 23.3916 54.6381 21.978 54.6381Z" fill="#020202"/>
<path d="M1.14551 51.2194C1.14551 49.4048 2.61926 47.931 4.43387 47.931C6.24848 47.931 7.72223 49.4048 7.72223 51.2194C7.72223 53.034 6.24848 54.5077 4.43387 54.5077C2.61926 54.5077 1.14551 53.034 1.14551 51.2194Z" fill="white"/>
<path d="M4.43406 55.2497C2.2084 55.2497 0.403809 53.4451 0.403809 51.2194C0.403809 48.9938 2.2084 47.1892 4.43406 47.1892C6.65972 47.1892 8.46431 48.9938 8.46431 51.2194C8.46431 53.4451 6.65972 55.2497 4.43406 55.2497ZM4.43406 48.663C3.02046 48.663 1.87756 49.8059 1.87756 51.2194C1.87756 52.633 3.02046 53.7759 4.43406 53.7759C5.84765 53.7759 6.99056 52.633 6.99056 51.2194C6.99056 49.8059 5.84765 48.663 4.43406 48.663Z" fill="#020202"/>
</svg>
