<?xml version="1.0" encoding="UTF-8"?>
<svg id="Layer_1" xmlns="http://www.w3.org/2000/svg" viewBox="0 0 198.43 198.43">
  <defs>
    <style>
      .cls-1 {
        fill: #fff;
      }

      .cls-2 {
        fill: #020202;
      }
    </style>
  </defs>
  <rect class="cls-2" x="7.84" y="94.14" width="47.01" height="4.46" transform="translate(-43.88 28.47) rotate(-29.91)"/>
  <rect class="cls-2" x="28.18" y="111.82" width="35.27" height="4.46"/>
  <rect class="cls-2" x="25.33" y="117.68" width="38.27" height="4.46" transform="translate(-83.35 115.66) rotate(-67.75)"/>
  <path class="cls-2" d="M61.23,114.31c-1.25-10.73-5.54-21.55-11.21-28.22l3.39-2.89c6.3,7.42,10.88,18.85,12.24,30.59l-4.43.51Z"/>
  <path class="cls-2" d="M38,139.71l-1.55-4.18c12.3-4.58,20.46-11.89,24.95-22.36l4.09,1.76c-5,11.65-13.99,19.75-27.49,24.78"/>
  <g>
    <path class="cls-1" d="M60.38,114.05c0-1.69,1.37-3.06,3.06-3.06s3.06,1.37,3.06,3.06-1.37,3.06-3.06,3.06-3.06-1.37-3.06-3.06"/>
    <path d="M63.44,117.85c-2.09,0-3.8-1.7-3.8-3.8s1.7-3.8,3.8-3.8,3.8,1.7,3.8,3.8-1.7,3.8-3.8,3.8ZM63.44,111.72c-1.29,0-2.33,1.05-2.33,2.33s1.04,2.33,2.33,2.33,2.33-1.05,2.33-2.33-1.05-2.33-2.33-2.33Z"/>
  </g>
  <rect class="cls-2" x="30.48" y="113.21" width="4.46" height="25.25" transform="translate(-42.91 20.07) rotate(-20.99)"/>
  <path class="cls-2" d="M36.51,139.73c-13.42-4.54-22.98-15.26-27.67-31l4.27-1.27c4.26,14.3,12.84,24,24.83,28.06l-1.43,4.22Z"/>
  <g>
    <path class="cls-1" d="M33.94,137.1c0-1.81,1.47-3.28,3.28-3.28s3.28,1.47,3.28,3.28-1.47,3.28-3.28,3.28-3.28-1.47-3.28-3.28"/>
    <path d="M37.23,141.12c-2.22,0-4.02-1.8-4.02-4.02s1.8-4.02,4.02-4.02,4.02,1.8,4.02,4.02-1.8,4.02-4.02,4.02ZM37.23,134.55c-1.41,0-2.55,1.14-2.55,2.55s1.14,2.55,2.55,2.55,2.55-1.14,2.55-2.55-1.14-2.55-2.55-2.55Z"/>
  </g>
  <path class="cls-2" d="M50.37,103.74c-9.42-8.23-15.05-28.03-15.05-42.41h4.09c0,7.05,1.39,15.22,3.82,22.43,2.55,7.59,6.05,13.59,9.83,16.9l-2.69,3.08Z"/>
  <path class="cls-2" d="M44.87,87.29c-8.57,0-15.98-2.07-23.36-6.42l2.27-3.84c8.44,4.99,16.98,6.65,27.68,5.4l.52,4.43c-2.46.29-4.83.43-7.1.43"/>
  <path class="cls-2" d="M13.15,108.59l-4.34-1c4.68-20.27,13.79-36.4,27.1-47.95l2.92,3.37c-12.58,10.91-21.22,26.25-25.68,45.59"/>
  <g>
    <path class="cls-1" d="M48.43,84.65c0-1.81,1.47-3.28,3.28-3.28s3.28,1.47,3.28,3.28-1.47,3.28-3.28,3.28-3.28-1.47-3.28-3.28"/>
    <path d="M51.72,88.66c-2.22,0-4.02-1.8-4.02-4.02s1.8-4.02,4.02-4.02,4.02,1.8,4.02,4.02-1.8,4.02-4.02,4.02ZM51.72,82.1c-1.41,0-2.55,1.14-2.55,2.55s1.14,2.55,2.55,2.55,2.55-1.14,2.55-2.55-1.14-2.55-2.55-2.55Z"/>
  </g>
  <rect class="cls-2" x="23.18" y="78.74" width="4.46" height="35.53" transform="translate(-14.73 5.14) rotate(-8.97)"/>
  <g>
    <path class="cls-1" d="M19.36,78.87c0-1.81,1.47-3.28,3.28-3.28s3.28,1.47,3.28,3.28-1.47,3.28-3.28,3.28-3.28-1.47-3.28-3.28"/>
    <path d="M22.64,82.89c-2.21,0-4.02-1.8-4.02-4.02s1.8-4.02,4.02-4.02,4.02,1.8,4.02,4.02-1.8,4.02-4.02,4.02ZM22.64,76.32c-1.4,0-2.55,1.14-2.55,2.55s1.14,2.55,2.55,2.55,2.55-1.14,2.55-2.55-1.14-2.55-2.55-2.55Z"/>
  </g>
  <g>
    <path class="cls-1" d="M34.08,61.32c0-1.81,1.47-3.28,3.28-3.28s3.28,1.47,3.28,3.28-1.47,3.28-3.28,3.28-3.28-1.47-3.28-3.28"/>
    <path d="M37.36,65.34c-2.21,0-4.02-1.8-4.02-4.02s1.8-4.02,4.02-4.02,4.02,1.8,4.02,4.02-1.8,4.02-4.02,4.02ZM37.36,58.77c-1.4,0-2.55,1.14-2.55,2.55s1.14,2.55,2.55,2.55,2.55-1.14,2.55-2.55-1.14-2.55-2.55-2.55Z"/>
  </g>
  <path d="M101.71,83.63c0,3.93-1.84,6.07-4.09,7.08v.07c3.03.85,4.99,3.56,4.99,7.42,0,6.41-4.34,9.29-9.95,9.29h-10.55c-2.62,0-4.05-1.79-4.05-3.95v-24.43c0-2.16,1.4-3.98,4.05-3.98h10.32c6.02,0,9.29,4,9.29,8.5M83.34,80.11v8.64h8.39c3.24,0,4.71-1.66,4.71-4.32,0-2.83-1.61-4.32-4.71-4.32h-8.39ZM83.34,93.05v9.47h8.78c3.54,0,5.17-1.7,5.17-4.76s-1.88-4.71-4.92-4.71h-9.03Z"/>
  <path d="M135.52,105.05c0,1.47-1.17,2.67-2.64,2.67-1.08,0-2.14-.67-2.48-1.75l-2.9-8.23h-13.54l-2.92,8.23c-.37,1.08-1.4,1.75-2.48,1.75-1.47,0-2.64-1.2-2.64-2.67,0-.41.11-.78.25-1.17l9.06-24.83c.99-2.71,2.9-4.14,5.52-4.14s4.57,1.43,5.54,4.14l8.99,24.83c.14.39.25.76.25,1.17M125.84,93.03l-4.21-11.98c-.18-.48-.48-.74-.9-.74-.44,0-.69.23-.9.76l-4.23,11.95h10.23Z"/>
  <path d="M163.15,77.56c0,.67-.23,1.24-.71,1.82l-9.84,12.02c-1.06,1.31-1.24,1.66-1.24,2.62v10.94c0,1.56-1.08,2.76-2.69,2.76-1.49,0-2.64-1.26-2.64-2.76v-10.94c0-.92-.16-1.29-1.29-2.67l-9.79-11.98c-.48-.57-.71-1.15-.71-1.82,0-1.47,1.2-2.67,2.69-2.67.83,0,1.63.41,2.21,1.13l9.56,11.93,9.56-11.93c.58-.71,1.38-1.13,2.21-1.13,1.49,0,2.69,1.19,2.69,2.67"/>
  <path d="M191.47,105.05c0,1.47-1.17,2.67-2.64,2.67-1.08,0-2.14-.67-2.48-1.75l-2.9-8.23h-13.54l-2.92,8.23c-.37,1.08-1.4,1.75-2.48,1.75-1.47,0-2.64-1.2-2.64-2.67,0-.41.11-.78.25-1.17l9.06-24.83c.99-2.71,2.9-4.14,5.52-4.14s4.57,1.43,5.54,4.14l8.99,24.83c.14.39.25.76.25,1.17M181.79,93.03l-4.21-11.98c-.18-.48-.48-.74-.9-.74-.44,0-.69.23-.9.76l-4.23,11.95h10.23Z"/>
  <path class="cls-2" d="M84.37,117.3c.05.11.06.21.06.3,0,.31-.28.56-.57.56s-.43-.18-.53-.36c-.32-.75-1.05-1.23-1.9-1.23-1.25,0-2.06.93-2.16,2.19-.03.54-.03,1.09,0,1.64.1,1.28.91,2.18,2.16,2.18.85,0,1.58-.48,1.9-1.23.1-.19.24-.36.53-.36s.57.23.57.56c0,.1-.01.19-.06.3-.46,1.16-1.66,1.85-2.95,1.85-1.89,0-3.19-1.4-3.32-3.23-.05-.6-.05-1.22,0-1.82.13-1.81,1.44-3.22,3.32-3.22,1.29,0,2.48.69,2.95,1.85"/>
  <path class="cls-2" d="M91.83,118.08c0,1.24-.65,2.05-1.83,2.26l1.91,2.32c.09.11.16.23.16.41,0,.33-.26.6-.59.6-.16,0-.33-.06-.47-.24l-1.98-2.48c-.18-.23-.32-.37-.64-.37h-1.25v2.47c0,.33-.24.6-.59.6s-.58-.28-.58-.6v-6.66c0-.42.25-.85.88-.85h2.33c1.54,0,2.65.95,2.65,2.53M87.14,116.65v2.84h1.85c1.23,0,1.67-.57,1.67-1.41s-.5-1.43-1.55-1.43h-1.97Z"/>
  <path class="cls-2" d="M99.06,116.11c0,.31-.25.56-.57.56h-3.65v2.37h3.44c.3,0,.54.23.54.53s-.24.53-.54.53h-3.44v2.41h3.67c.32,0,.57.25.57.56s-.25.56-.57.56h-3.93c-.6,0-.92-.41-.92-.91v-6.25c0-.49.32-.9.92-.9h3.9c.32,0,.57.25.57.56"/>
  <path class="cls-2" d="M107.25,123.08c0,.32-.26.58-.58.58-.24,0-.47-.14-.55-.38l-.78-2.2h-3.48l-.79,2.2c-.09.24-.32.38-.55.38-.33,0-.58-.26-.58-.58,0-.1.03-.18.06-.28l2.31-6.33c.24-.64.67-.97,1.28-.97s1.07.33,1.3.98l2.3,6.33c.03.09.06.18.06.28M104.97,120.03l-1.11-3.14c-.05-.14-.14-.21-.26-.21s-.19.07-.25.22l-1.12,3.14h2.73Z"/>
  <path class="cls-2" d="M113.36,116.13c0,.32-.28.58-.6.58h-2.11v6.35c0,.34-.24.6-.58.6s-.59-.27-.59-.6v-6.35h-2.12c-.33,0-.6-.27-.6-.58s.27-.58.6-.58h5.4c.33,0,.6.25.6.58"/>
  <path class="cls-2" d="M115.71,116.1v6.96c0,.34-.25.6-.58.6s-.58-.26-.58-.6v-6.96c0-.33.27-.6.58-.6.33,0,.58.27.58.6"/>
  <path class="cls-2" d="M124.15,116.08c0,.1-.03.18-.06.27l-2.33,6.29c-.24.66-.58,1.02-1.22,1.02s-.99-.4-1.22-1.02l-2.32-6.29c-.03-.09-.06-.17-.06-.27,0-.32.26-.58.58-.58.24,0,.46.15.55.38l2.33,6.47c.03.07.07.11.14.11.06,0,.1-.03.13-.11l2.33-6.47c.08-.24.31-.38.54-.38.33,0,.58.26.58.58"/>
  <path class="cls-2" d="M130.78,116.11c0,.31-.25.56-.57.56h-3.65v2.37h3.44c.3,0,.54.23.54.53s-.24.53-.54.53h-3.44v2.41h3.67c.32,0,.57.25.57.56s-.25.56-.57.56h-3.93c-.6,0-.92-.41-.92-.91v-6.25c0-.49.32-.9.92-.9h3.9c.32,0,.57.25.57.56"/>
  <path class="cls-2" d="M136.79,116.1v6.35h3.54c.31,0,.6.26.6.58s-.28.57-.6.57h-3.9c-.53,0-.81-.37-.81-.81v-6.7c0-.33.27-.6.58-.6.33,0,.58.27.58.6"/>
  <path class="cls-2" d="M147.37,116.11c0,.31-.25.56-.57.56h-3.65v2.37h3.44c.3,0,.54.23.54.53s-.24.53-.54.53h-3.44v2.41h3.67c.32,0,.57.25.57.56s-.25.56-.57.56h-3.93c-.6,0-.92-.41-.92-.91v-6.25c0-.49.32-.9.92-.9h3.9c.32,0,.57.25.57.56"/>
  <path class="cls-2" d="M155.56,123.08c0,.32-.26.58-.58.58-.24,0-.47-.14-.55-.38l-.78-2.2h-3.48l-.79,2.2c-.09.24-.32.38-.55.38-.33,0-.58-.26-.58-.58,0-.1.03-.18.06-.28l2.31-6.33c.24-.64.67-.97,1.28-.97s1.07.33,1.29.98l2.3,6.33c.03.09.06.18.06.28M153.27,120.03l-1.11-3.14c-.05-.14-.14-.21-.26-.21s-.19.07-.25.22l-1.12,3.14h2.73Z"/>
  <path class="cls-2" d="M162.66,118.08c0,1.24-.65,2.05-1.83,2.26l1.91,2.32c.09.11.16.23.16.41,0,.33-.26.6-.59.6-.16,0-.33-.06-.47-.24l-1.98-2.48c-.18-.23-.32-.37-.64-.37h-1.25v2.47c0,.33-.24.6-.59.6s-.58-.28-.58-.6v-6.66c0-.42.25-.85.88-.85h2.33c1.54,0,2.65.95,2.65,2.53M157.97,116.65v2.84h1.85c1.23,0,1.67-.57,1.67-1.41s-.5-1.43-1.55-1.43h-1.97Z"/>
  <path class="cls-2" d="M166.36,116.04l3.7,6.18h.03c-.07-1.16-.07-3.2-.07-4.6v-1.51c0-.34.27-.6.58-.6.33,0,.58.26.58.6v6.59c0,.49-.34.97-.93.97-.47,0-.73-.25-.96-.65l-3.66-6.12h-.03c.07,1.04.07,2.74.07,4.02v2.15c0,.33-.22.6-.58.6s-.58-.27-.58-.6v-6.53c0-.57.36-1.03.96-1.03.37,0,.68.16.89.54"/>
  <path class="cls-2" d="M174.42,116.1v6.96c0,.34-.25.6-.58.6s-.58-.26-.58-.6v-6.96c0-.33.27-.6.58-.6.33,0,.58.27.58.6"/>
  <path class="cls-2" d="M178.34,116.04l3.7,6.18h.03c-.07-1.16-.07-3.2-.07-4.6v-1.51c0-.34.27-.6.58-.6.33,0,.58.26.58.6v6.59c0,.49-.34.97-.93.97-.47,0-.73-.25-.96-.65l-3.66-6.12h-.03c.07,1.04.07,2.74.07,4.02v2.15c0,.33-.22.6-.58.6s-.58-.27-.58-.6v-6.53c0-.57.36-1.03.96-1.03.37,0,.68.16.89.54"/>
  <path class="cls-2" d="M191.2,117.14c.05.09.09.21.09.34,0,.3-.26.56-.56.56-.26,0-.42-.15-.5-.31-.31-.71-.98-1.16-1.92-1.16-1.24,0-2.11.85-2.24,2.23-.06.63-.05,1.19.02,1.71.17,1.28.88,2.11,2.26,2.11,1.23,0,1.99-.73,1.99-1.68v-.62h-1.46c-.29,0-.56-.24-.56-.55s.25-.54.56-.54h1.72c.56,0,.87.38.87.85v.74c0,1.59-1.29,2.9-3.16,2.9s-3.26-1.4-3.4-3.23c-.05-.6-.05-1.22,0-1.82.14-1.82,1.51-3.23,3.4-3.23,1.35,0,2.41.64,2.89,1.69"/>
  <g>
    <path class="cls-1" d="M48.43,102.2c0-1.81,1.47-3.28,3.28-3.28s3.28,1.47,3.28,3.28-1.47,3.28-3.28,3.28-3.28-1.47-3.28-3.28"/>
    <path d="M51.72,106.21c-2.22,0-4.02-1.8-4.02-4.02s1.8-4.02,4.02-4.02,4.02,1.8,4.02,4.02-1.8,4.02-4.02,4.02ZM51.72,99.65c-1.41,0-2.55,1.14-2.55,2.55s1.14,2.55,2.55,2.55,2.55-1.14,2.55-2.55-1.14-2.55-2.55-2.55Z"/>
  </g>
  <g>
    <path class="cls-1" d="M25.19,114.05c0-1.81,1.47-3.28,3.28-3.28s3.28,1.47,3.28,3.28-1.47,3.28-3.28,3.28-3.28-1.47-3.28-3.28"/>
    <path d="M28.47,118.07c-2.21,0-4.02-1.8-4.02-4.02s1.8-4.02,4.02-4.02,4.02,1.8,4.02,4.02-1.8,4.02-4.02,4.02ZM28.47,111.5c-1.4,0-2.55,1.14-2.55,2.55s1.14,2.55,2.55,2.55,2.55-1.14,2.55-2.55-1.14-2.55-2.55-2.55Z"/>
  </g>
  <g>
    <path class="cls-1" d="M7.69,108.09c0-1.81,1.47-3.28,3.28-3.28s3.28,1.47,3.28,3.28-1.47,3.28-3.28,3.28-3.28-1.47-3.28-3.28"/>
    <path d="M10.97,112.11c-2.22,0-4.02-1.8-4.02-4.02s1.8-4.02,4.02-4.02,4.02,1.8,4.02,4.02-1.8,4.02-4.02,4.02ZM10.97,105.54c-1.41,0-2.55,1.14-2.55,2.55s1.14,2.55,2.55,2.55,2.55-1.14,2.55-2.55-1.14-2.55-2.55-2.55Z"/>
  </g>
</svg>